Coordinates
version=1
nRows=10
nColumns=40
inDegrees=yes

Units are S.I. units (second, meters, Newtons, ...)
If the header above contains a line with 'inDegrees', this indicates whether rotational values are in degrees (yes) or radians (no).

endheader
time	pelvis_tilt	pelvis_list	pelvis_rotation	pelvis_tx	pelvis_ty	pelvis_tz	hip_flexion_r	hip_adduction_r	hip_rotation_r	knee_angle_r	knee_angle_r_beta	ankle_angle_r	subtalar_angle_r	mtp_angle_r	hip_flexion_l	hip_adduction_l	hip_rotation_l	knee_angle_l	knee_angle_l_beta	ankle_angle_l	subtalar_angle_l	mtp_angle_l	lumbar_extension	lumbar_bending	lumbar_rotation	arm_flex_r	arm_add_r	arm_rot_r	elbow_flex_r	pro_sup_r	wrist_flex_r	wrist_dev_r	arm_flex_l	arm_add_l	arm_rot_l	elbow_flex_l	pro_sup_l	wrist_flex_l	wrist_dev_l
      3.75000000	      1.95159341	     -7.01501810	      2.55532038	     -0.36587400	      0.78569359	     -1.05736811	     60.35559290	      0.23339154	    -12.02319648	     26.90662799	      0.46960925	    -10.02852685	      0.00000000	      0.00000000	     51.20382670	     -1.24411367	      0.30626146	     92.94509323	      1.62219790	     28.42140856	      0.00000000	      0.00000000	    -22.50094549	      6.50052630	     -1.68512186	     89.88559895	    -15.13699807	     26.85431903	     41.46294242	     85.26063156	      0.00000000	      0.00000000	     89.92964924	    -20.24669714	     24.44772559	     39.96473019	     84.77213780	      0.00000000	      0.00000000
      3.75500000	      1.97601463	     -7.05425889	      2.60162756	     -0.36596951	      0.78521108	     -1.05744872	     60.38097530	      0.19941898	    -12.14640136	     26.92740830	      0.46997193	     -9.99364511	      0.00000000	      0.00000000	     51.25853283	     -1.25981206	      0.33121975	     93.05907409	      1.62418724	     28.41903714	      0.00000000	      0.00000000	    -22.55941751	      6.56584171	     -1.72835468	     89.88600425	    -15.03529501	     26.64055858	     41.44123176	     85.39829522	      0.00000000	      0.00000000	     89.93014071	    -20.25599277	     24.35940449	     40.04512202	     84.82771586	      0.00000000	      0.00000000
      3.76000000	      1.90733753	     -7.01734606	      2.59894198	     -0.36609577	      0.78451307	     -1.05751394	     60.52376879	      0.14793693	    -12.15112777	     26.95489761	      0.47045171	     -9.97397682	      0.00000000	      0.00000000	     51.39687012	     -1.21886555	      0.29909821	     93.15147878	      1.62580001	     28.43272437	      0.00000000	      0.00000000	    -22.51446716	      6.53182347	     -1.73046761	     89.88678414	    -15.05250779	     26.62373654	     41.47591270	     85.47618797	      0.00000000	      0.00000000	     89.93047051	    -20.23119067	     24.30503328	     40.12842362	     84.78513488	      0.00000000	      0.00000000
      3.76500000	      1.87484751	     -7.00950034	      2.66605167	     -0.36623427	      0.78388486	     -1.05768352	     60.62158721	      0.05235825	    -12.21237301	     26.98188649	      0.47092276	     -9.86388710	      0.00000000	      0.00000000	     51.50578174	     -1.13459642	      0.34633250	     93.24063664	      1.62735611	     28.41777073	      0.00000000	      0.00000000	    -22.49526017	      6.55127966	     -1.81336131	     89.88808540	    -15.01460488	     26.58843692	     41.49923101	     85.17640498	      0.00000000	      0.00000000	     89.93081766	    -20.29324881	     24.39168592	     40.24610429	     84.65876917	      0.00000000	      0.00000000
      3.77000000	      1.85955868	     -7.05511928	      2.70172424	     -0.36632614	      0.78333258	     -1.05774137	     60.67311768	      0.02238039	    -12.36517242	     26.94821437	      0.47033507	     -9.90822439	      0.00000000	      0.00000000	     51.59545291	     -1.15711937	      0.37716171	     93.36468894	      1.62952123	     28.49388771	      0.00000000	      0.00000000	    -22.51883650	      6.62142637	     -1.80244999	     89.88879517	    -14.98390866	     26.39649301	     41.51723394	     85.51949083	      0.00000000	      0.00000000	     89.93103591	    -20.25334991	     24.25512528	     40.29970911	     84.74217456	      0.00000000	      0.00000000
      3.77500000	      1.82271515	     -7.04428218	      2.71790689	     -0.36643807	      0.78269317	     -1.05783579	     60.77167702	     -0.03090176	    -12.42313719	     26.95144663	      0.47039148	     -9.90573071	      0.00000000	      0.00000000	     51.69548470	     -1.12920586	      0.37628149	     93.44186582	      1.63086822	     28.54216967	      0.00000000	      0.00000000	    -22.51083334	      6.62397068	     -1.83367193	     89.88921983	    -14.94808361	     26.29417121	     41.54243375	     85.59829751	      0.00000000	      0.00000000	     89.93148696	    -20.26574837	     24.17190937	     40.38489760	     84.72830408	      0.00000000	      0.00000000
      3.78000000	      1.79534410	     -7.06686276	      2.78403171	     -0.36680002	      0.78210724	     -1.05789739	     60.84384854	     -0.09544199	    -12.48248623	     26.90009528	      0.46949523	     -9.95481391	      0.00000000	      0.00000000	     51.81588963	     -1.08030068	      0.45793869	     93.52203651	      1.63226746	     28.53839958	      0.00000000	      0.00000000	    -22.51650842	      6.67642214	     -1.87433233	     89.89070497	    -14.94469479	     26.17222529	     41.64590392	     85.28439732	      0.00000000	      0.00000000	     89.93214473	    -20.26056632	     24.08956844	     40.47871886	     84.71595222	      0.00000000	      0.00000000
      3.78500000	      1.76882694	     -7.04004101	      2.78287227	     -0.36679203	      0.78153521	     -1.05799546	     60.94945187	     -0.15205055	    -12.51288301	     26.98226771	      0.47092941	     -9.78949320	      0.00000000	      0.00000000	     51.89810445	     -1.06051529	      0.40936084	     93.63391544	      1.63422012	     28.54223305	      0.00000000	      0.00000000	    -22.51466828	      6.65428534	     -1.88246862	     89.89109057	    -14.91317289	     26.11389508	     41.61996488	     85.50967356	      0.00000000	      0.00000000	     89.93236869	    -20.29224012	     24.08827860	     40.58610638	     84.88948870	      0.00000000	      0.00000000
      3.79000000	      1.77438002	     -7.03628937	      2.82481850	     -0.36685386	      0.78102848	     -1.05808425	     60.99198889	     -0.22486909	    -12.61809972	     26.99946086	      0.47122949	     -9.66420466	      0.00000000	      0.00000000	     51.94243828	     -1.02617763	      0.41796118	     93.70768187	      1.63550758	     28.60058840	      0.00000000	      0.00000000	    -22.55689760	      6.67046736	     -1.91101681	     89.89190591	    -14.91189404	     26.00523493	     41.70570747	     85.50782773	      0.00000000	      0.00000000	     89.93277799	    -20.29573557	     23.98717327	     40.68385169	     84.89374822	      0.00000000	      0.00000000
      3.79500000	      1.72933536	     -6.99890746	      2.84794516	     -0.36699966	      0.78037329	     -1.05817693	     61.11658770	     -0.31693767	    -12.73084133	     27.03713527	      0.47188703	     -9.68362633	      0.00000000	      0.00000000	     52.04935640	     -0.95161879	      0.41917314	     93.79501005	      1.63703175	     28.68326532	      0.00000000	      0.00000000	    -22.54161653	      6.64445269	     -1.92003993	     89.89251223	    -14.92542008	     25.92893961	     41.74327625	     85.58595550	      0.00000000	      0.00000000	     89.93316172	    -20.26894710	     23.91418449	     40.78582027	     84.80894935	      0.00000000	      0.00000000
